<svg width="36" height="37" viewBox="0 0 36 37" fill="none" xmlns="http://www.w3.org/2000/svg">
  <circle cx="17.9033" cy="18.6855" r="15.9706" fill="#3CC48F"/>
  <path fill-rule="evenodd" clip-rule="evenodd" d="M1.51602 25.4704C4.26166 32.0976 10.7293 36.4182 17.9028 36.4172C27.6907 36.4045 35.6223 28.473 35.6349 18.685C35.636 11.5115 31.3154 5.04389 24.6882 2.29824C18.061 -0.447402 10.4323 1.06974 5.35993 6.14215C0.287514 11.2146 -1.22963 18.8432 1.51602 25.4704ZM4.77578 13.2466C6.97549 7.93805 12.1565 4.47737 17.9028 4.47841C25.7444 4.48824 32.0984 10.8434 32.1069 18.685C32.1069 24.4313 28.6452 29.6117 23.3363 31.8105C18.0273 34.0092 11.9166 32.7933 7.85375 28.7297C3.79089 24.6661 2.57606 18.5552 4.77578 13.2466Z" fill="#AEFFDC"/>
</svg>
