<svg width="22" height="22" viewBox="0 0 22 22" fill="none" xmlns="http://www.w3.org/2000/svg">
<path d="M1.45961 15.5365C2.20479 15.5365 2.80888 14.9325 2.80888 14.1873C2.80888 13.4421 2.20479 12.838 1.45961 12.838C0.714437 12.838 0.110352 13.4421 0.110352 14.1873C0.110352 14.9325 0.714437 15.5365 1.45961 15.5365Z" fill="#13E989"/>
<path d="M13.9091 21.4263C14.6543 21.4263 15.2583 20.8222 15.2583 20.077C15.2583 19.3319 14.6543 18.7278 13.9091 18.7278C13.1639 18.7278 12.5598 19.3319 12.5598 20.077C12.5598 20.8222 13.1639 21.4263 13.9091 21.4263Z" fill="#13E989"/>
<path d="M7.97402 2.69852C8.71919 2.69852 9.32328 2.09444 9.32328 1.34926C9.32328 0.604085 8.71919 0 7.97402 0C7.22884 0 6.62476 0.604085 6.62476 1.34926C6.62476 2.09444 7.22884 2.69852 7.97402 2.69852Z" fill="#13E989"/>
<path d="M8.58354 14.3958C8.58354 14.0503 8.4497 13.7265 8.20553 13.4824C7.70091 12.9778 6.87616 12.976 6.36973 13.4788L2.94413 16.8736C2.69815 17.1178 2.5625 17.4415 2.5625 17.7852C2.5625 18.1288 2.69634 18.4544 2.94051 18.6986C3.19372 18.9518 3.52652 19.0784 3.85931 19.0784C4.1921 19.0784 4.52309 18.9536 4.7763 18.7022L8.20191 15.3073C8.44789 15.0631 8.58354 14.7394 8.58354 14.3958Z" fill="#13E989"/>
<path d="M19.1808 13.0394L16.3376 15.8736C16.0916 16.1177 15.9578 16.4415 15.9578 16.7869C15.9578 17.1324 16.0934 17.4562 16.3376 17.7003C16.5908 17.9517 16.9236 18.0783 17.2546 18.0783C17.5856 18.0783 17.9202 17.9517 18.1734 17.7003L21.0166 14.8661C21.2626 14.622 21.3964 14.2982 21.3964 13.9528C21.3964 13.6073 21.2608 13.2836 21.0166 13.0394C20.5102 12.5366 19.6872 12.5366 19.1808 13.0394Z" fill="#13E989"/>
<path d="M21.4216 7.76613C21.4216 7.42067 21.286 7.09692 21.0418 6.85275C20.5354 6.34994 19.7124 6.34994 19.206 6.85275L6.77508 19.2095C6.52911 19.4537 6.39526 19.7775 6.39526 20.1229C6.39526 20.4684 6.53091 20.7921 6.77508 21.0363C7.0283 21.2877 7.36109 21.4143 7.69208 21.4143C8.02306 21.4143 8.35766 21.2877 8.61088 21.0363L21.0418 8.6795C21.2878 8.43533 21.4216 8.11158 21.4216 7.76613Z" fill="#13E989"/>
<path d="M8.61304 11.7881C8.61304 12.1336 8.74869 12.4573 8.99286 12.7015C9.24607 12.9529 9.57886 13.0795 9.91166 13.0795C10.2445 13.0795 10.5772 12.9529 10.8305 12.7015L18.6927 4.88086C18.9387 4.63669 19.0725 4.31294 19.0725 3.96748C19.0725 3.62203 18.9369 3.29828 18.6927 3.05411C18.1863 2.5513 17.3633 2.5513 16.8569 3.05411L8.99466 10.8748C8.74869 11.1189 8.61485 11.4427 8.61485 11.7881H8.61304Z" fill="#13E989"/>
<path d="M2.78125 11.4377C2.78125 11.7832 2.9169 12.1069 3.16288 12.3511C3.41609 12.6025 3.74888 12.7273 4.07987 12.7273C4.41086 12.7273 4.74546 12.6007 4.99867 12.3493L14.9192 2.46856C15.1652 2.22439 15.299 1.90064 15.299 1.55519C15.299 1.20974 15.1634 0.885985 14.9174 0.641816C14.411 0.139007 13.588 0.139007 13.0816 0.641816L3.16107 10.5207C2.91509 10.7649 2.78125 11.0886 2.78125 11.4341V11.4377Z" fill="#13E989"/>
<path d="M1.29862 9.33886C1.6296 9.33886 1.9624 9.21406 2.21561 8.96266L5.81485 5.39597C6.06083 5.1518 6.19648 4.82805 6.19648 4.4826C6.19648 4.13714 6.06264 3.81339 5.81847 3.56922C5.31385 3.06461 4.4891 3.06461 3.98267 3.56561L0.381628 7.1341C0.13565 7.37827 0 7.70202 0 8.04747C0 8.39293 0.133841 8.71668 0.37801 8.96085C0.631223 9.21406 0.964017 9.34067 1.29681 9.34067L1.29862 9.33886Z" fill="#13E989"/>
</svg>
