<svg width="301" height="65" viewBox="0 0 301 65" fill="none" xmlns="http://www.w3.org/2000/svg">
<path d="M53.9999 33C53.9999 47.9116 41.9117 60 26.9999 60C12.0883 60 0 47.9116 0 33C0 18.0883 12.0883 6 26.9999 6C41.9117 6 53.9999 18.0883 53.9999 33Z" fill="#86FFC9"/>
<path d="M47 33.0001C47 44.0457 38.0457 53 27 53C15.9543 53 7 44.0457 7 33.0001C7 21.9542 15.9543 13 27 13C38.0457 13 47 21.9542 47 33.0001Z" fill="#13E989"/>
<path d="M85.3902 52.9761C82.6102 52.9761 80.0388 52.4722 77.6758 51.4645C75.3476 50.4567 73.2974 49.0494 71.5252 47.2424C69.7877 45.4355 68.4325 43.3157 67.4595 40.8833C66.4865 38.4508 66 35.7925 66 32.9083C66 30.0241 66.4691 27.3657 67.4074 24.9333C68.3803 22.4661 69.7356 20.3463 71.473 18.5741C73.2453 16.7671 75.3129 15.3772 77.6758 14.4042C80.0388 13.3964 82.6102 12.8926 85.3902 12.8926C88.1702 12.8926 90.6547 13.3617 92.844 14.2999C95.0679 15.2382 96.9444 16.4891 98.4734 18.0529C100.002 19.5818 101.097 21.2672 101.757 23.1089L95.398 26.08C94.6683 24.134 93.4347 22.5356 91.6972 21.2846C89.9598 19.9988 87.8574 19.356 85.3902 19.356C82.9577 19.356 80.8033 19.9293 78.9268 21.0761C77.0851 22.2228 75.643 23.8039 74.6005 25.8194C73.5928 27.8348 73.0889 30.1978 73.0889 32.9083C73.0889 35.6187 73.5928 37.9991 74.6005 40.0493C75.643 42.0648 77.0851 43.6459 78.9268 44.7926C80.8033 45.9393 82.9577 46.5127 85.3902 46.5127C87.8574 46.5127 89.9598 45.8872 91.6972 44.6362C93.4347 43.3505 94.6683 41.7346 95.398 39.7887L101.757 42.7597C101.097 44.6015 100.002 46.3042 98.4734 47.8679C96.9444 49.3969 95.0679 50.6305 92.844 51.5687C90.6547 52.507 88.1702 52.9761 85.3902 52.9761Z" fill="#131313"/>
<path d="M119.148 52.9761C116.368 52.9761 113.832 52.3332 111.538 51.0475C109.28 49.7618 107.473 48.0069 106.117 45.7829C104.797 43.559 104.137 41.0223 104.137 38.1728C104.137 35.3234 104.797 32.7866 106.117 30.5627C107.473 28.3387 109.28 26.5839 111.538 25.2981C113.797 24.0124 116.334 23.3695 119.148 23.3695C121.928 23.3695 124.448 24.0124 126.706 25.2981C128.965 26.5839 130.755 28.3387 132.075 30.5627C133.43 32.7519 134.108 35.2886 134.108 38.1728C134.108 41.0223 133.43 43.559 132.075 45.7829C130.72 48.0069 128.913 49.7618 126.654 51.0475C124.396 52.3332 121.894 52.9761 119.148 52.9761ZM119.148 46.7212C120.677 46.7212 122.015 46.3563 123.162 45.6266C124.343 44.8968 125.264 43.8891 125.924 42.6034C126.619 41.2829 126.967 39.806 126.967 38.1728C126.967 36.5048 126.619 35.0454 125.924 33.7944C125.264 32.5087 124.343 31.5009 123.162 30.7712C122.015 30.0067 120.677 29.6244 119.148 29.6244C117.585 29.6244 116.212 30.0067 115.031 30.7712C113.849 31.5009 112.911 32.5087 112.216 33.7944C111.556 35.0454 111.225 36.5048 111.225 38.1728C111.225 39.806 111.556 41.2829 112.216 42.6034C112.911 43.8891 113.849 44.8968 115.031 45.6266C116.212 46.3563 117.585 46.7212 119.148 46.7212Z" fill="#131313"/>
<path d="M138.139 52.3506V23.995H144.551V30.3021L144.03 29.3638C144.69 27.2441 145.715 25.7673 147.105 24.9333C148.53 24.0993 150.232 23.6823 152.213 23.6823H153.881V29.7287H151.431C149.485 29.7287 147.921 30.3368 146.74 31.553C145.558 32.7345 144.968 34.4025 144.968 36.557V52.3506H138.139Z" fill="#131313"/>
<path d="M165.089 52.9761C163.108 52.9761 161.388 52.646 159.929 51.9857C158.469 51.3255 157.34 50.3872 156.541 49.171C155.741 47.92 155.342 46.4779 155.342 44.8447C155.342 43.281 155.689 41.891 156.384 40.6748C157.079 39.4238 158.156 38.3813 159.616 37.5473C161.075 36.7133 162.917 36.1226 165.141 35.7751L174.419 34.2635V39.4759L166.444 40.8311C165.089 41.0744 164.081 41.5088 163.421 42.1343C162.761 42.7597 162.431 43.5764 162.431 44.5841C162.431 45.5571 162.795 46.3389 163.525 46.9297C164.29 47.4857 165.228 47.7637 166.34 47.7637C167.765 47.7637 169.016 47.4683 170.093 46.8776C171.205 46.2521 172.056 45.4007 172.647 44.3235C173.272 43.2462 173.585 42.0648 173.585 40.779V33.4816C173.585 32.2654 173.099 31.2577 172.126 30.4584C171.187 29.6244 169.936 29.2075 168.373 29.2075C166.913 29.2075 165.61 29.6071 164.463 30.4063C163.351 31.1708 162.535 32.1959 162.014 33.4816L156.436 30.7712C156.992 29.277 157.861 27.9912 159.043 26.914C160.259 25.802 161.683 24.9333 163.317 24.3078C164.95 23.6823 166.722 23.3695 168.633 23.3695C170.962 23.3695 173.012 23.8039 174.784 24.6726C176.556 25.5066 177.929 26.6881 178.902 28.2171C179.91 29.7113 180.413 31.4662 180.413 33.4816V52.3506H173.95V47.503L175.41 47.3988C174.68 48.615 173.811 49.6401 172.803 50.4741C171.796 51.2734 170.649 51.8989 169.363 52.3506C168.077 52.7676 166.653 52.9761 165.089 52.9761Z" fill="#131313"/>
<path d="M185.578 52.3506V12.8926H192.406V52.3506H185.578Z" fill="#131313"/>
<path d="M211.429 52.9761C208.649 52.9761 206.112 52.3332 203.819 51.0475C201.56 49.7618 199.753 48.0069 198.398 45.7829C197.077 43.559 196.417 41.0223 196.417 38.1728C196.417 35.3234 197.077 32.7866 198.398 30.5627C199.753 28.3387 201.56 26.5839 203.819 25.2981C206.078 24.0124 208.614 23.3695 211.429 23.3695C214.209 23.3695 216.728 24.0124 218.987 25.2981C221.246 26.5839 223.035 28.3387 224.356 30.5627C225.711 32.7519 226.389 35.2886 226.389 38.1728C226.389 41.0223 225.711 43.559 224.356 45.7829C223.001 48.0069 221.194 49.7618 218.935 51.0475C216.676 52.3332 214.174 52.9761 211.429 52.9761ZM211.429 46.7212C212.958 46.7212 214.296 46.3563 215.443 45.6266C216.624 44.8968 217.545 43.8891 218.205 42.6034C218.9 41.2829 219.248 39.806 219.248 38.1728C219.248 36.5048 218.9 35.0454 218.205 33.7944C217.545 32.5087 216.624 31.5009 215.443 30.7712C214.296 30.0067 212.958 29.6244 211.429 29.6244C209.865 29.6244 208.493 30.0067 207.311 30.7712C206.13 31.5009 205.191 32.5087 204.496 33.7944C203.836 35.0454 203.506 36.5048 203.506 38.1728C203.506 39.806 203.836 41.2829 204.496 42.6034C205.191 43.8891 206.13 44.8968 207.311 45.6266C208.493 46.3563 209.865 46.7212 211.429 46.7212Z" fill="#131313"/>
<path d="M244.181 63.8179C242.061 63.8179 240.098 63.4704 238.291 62.7754C236.484 62.0804 234.92 61.1075 233.6 59.8565C232.314 58.6402 231.376 57.1981 230.785 55.5302L237.144 53.1325C237.561 54.4529 238.378 55.5128 239.594 56.312C240.845 57.146 242.374 57.563 244.181 57.563C245.571 57.563 246.787 57.3024 247.83 56.7812C248.907 56.2599 249.741 55.4954 250.332 54.4877C250.922 53.5147 251.218 52.3332 251.218 50.9432V44.4798L252.521 46.0436C251.548 47.7463 250.245 49.032 248.611 49.9008C246.978 50.7695 245.119 51.2039 243.034 51.2039C240.393 51.2039 238.03 50.5957 235.945 49.3795C233.86 48.1633 232.227 46.4953 231.046 44.3756C229.864 42.2559 229.273 39.8755 229.273 37.2346C229.273 34.5589 229.864 32.1785 231.046 30.0936C232.227 28.0086 233.843 26.3754 235.893 25.1939C237.943 23.9777 240.272 23.3695 242.878 23.3695C244.997 23.3695 246.857 23.8213 248.455 24.7248C250.088 25.5935 251.443 26.8619 252.521 28.5298L251.582 30.2499V23.995H258.046V50.9432C258.046 53.4105 257.438 55.617 256.222 57.563C255.04 59.509 253.407 61.038 251.322 62.1499C249.272 63.2619 246.891 63.8179 244.181 63.8179ZM243.868 44.8968C245.328 44.8968 246.596 44.5841 247.673 43.9586C248.785 43.2984 249.654 42.3949 250.279 41.2481C250.905 40.1014 251.218 38.7809 251.218 37.2867C251.218 35.8272 250.887 34.5241 250.227 33.3774C249.602 32.1959 248.733 31.275 247.621 30.6148C246.544 29.9546 245.293 29.6244 243.868 29.6244C242.443 29.6244 241.158 29.9546 240.011 30.6148C238.864 31.275 237.961 32.1959 237.3 33.3774C236.675 34.5241 236.362 35.8272 236.362 37.2867C236.362 38.7462 236.675 40.0493 237.3 41.196C237.961 42.3428 238.847 43.2462 239.959 43.9065C241.106 44.5667 242.409 44.8968 243.868 44.8968Z" fill="#131313"/>
<path d="M263.276 52.3506V23.995H270.105V52.3506H263.276ZM263.276 20.8155V13.5181H270.105V20.8155H263.276Z" fill="#131313"/>
<path d="M272.708 52.3506L282.612 38.1207L272.656 23.995H280.683L288.45 35.4624H284.853L292.62 23.995H300.595L290.691 38.1207L300.543 52.3506H292.568L284.905 40.9354H288.398L280.735 52.3506H272.708Z" fill="#131313"/>
</svg>
