<svg width="74" height="30" viewBox="0 0 74 30" fill="none" xmlns="http://www.w3.org/2000/svg">
<path d="M1.45961 19.7351C2.20479 19.7351 2.80888 19.131 2.80888 18.3858C2.80888 17.6406 2.20479 17.0366 1.45961 17.0366C0.714437 17.0366 0.110352 17.6406 0.110352 18.3858C0.110352 19.131 0.714437 19.7351 1.45961 19.7351Z" fill="#13E989"/>
<path d="M13.9091 25.6249C14.6543 25.6249 15.2583 25.0208 15.2583 24.2756C15.2583 23.5304 14.6543 22.9263 13.9091 22.9263C13.1639 22.9263 12.5598 23.5304 12.5598 24.2756C12.5598 25.0208 13.1639 25.6249 13.9091 25.6249Z" fill="#13E989"/>
<path d="M7.97402 6.89707C8.71919 6.89707 9.32328 6.29299 9.32328 5.54781C9.32328 4.80263 8.71919 4.19855 7.97402 4.19855C7.22884 4.19855 6.62476 4.80263 6.62476 5.54781C6.62476 6.29299 7.22884 6.89707 7.97402 6.89707Z" fill="#13E989"/>
<path d="M8.58354 18.5943C8.58354 18.2488 8.4497 17.9251 8.20553 17.6809C7.70091 17.1763 6.87616 17.1745 6.36973 17.6773L2.94413 21.0722C2.69815 21.3163 2.5625 21.6401 2.5625 21.9837C2.5625 22.3274 2.69634 22.6529 2.94051 22.8971C3.19372 23.1503 3.52652 23.2769 3.85931 23.2769C4.1921 23.2769 4.52309 23.1521 4.7763 22.9007L8.20191 19.5059C8.44789 19.2617 8.58354 18.9379 8.58354 18.5943Z" fill="#13E989"/>
<path d="M19.1808 17.2379L16.3376 20.0721C16.0916 20.3163 15.9578 20.64 15.9578 20.9855C15.9578 21.3309 16.0934 21.6547 16.3376 21.8989C16.5908 22.1503 16.9236 22.2769 17.2546 22.2769C17.5856 22.2769 17.9202 22.1503 18.1734 21.8989L21.0166 19.0647C21.2626 18.8205 21.3964 18.4968 21.3964 18.1513C21.3964 17.8059 21.2608 17.4821 21.0166 17.2379C20.5102 16.7351 19.6872 16.7351 19.1808 17.2379Z" fill="#13E989"/>
<path d="M21.4216 11.9647C21.4216 11.6192 21.286 11.2955 21.0418 11.0513C20.5354 10.5485 19.7124 10.5485 19.206 11.0513L6.77508 23.4081C6.52911 23.6523 6.39526 23.976 6.39526 24.3215C6.39526 24.6669 6.53091 24.9907 6.77508 25.2348C7.0283 25.4862 7.36109 25.6128 7.69207 25.6128C8.02306 25.6128 8.35766 25.4862 8.61088 25.2348L21.0418 12.878C21.2878 12.6339 21.4216 12.3101 21.4216 11.9647Z" fill="#13E989"/>
<path d="M8.61304 15.9867C8.61304 16.3321 8.74869 16.6559 8.99286 16.9001C9.24607 17.1515 9.57886 17.2781 9.91166 17.2781C10.2445 17.2781 10.5772 17.1515 10.8305 16.9001L18.6927 9.0794C18.9387 8.83523 19.0725 8.51148 19.0725 8.16603C19.0725 7.82058 18.9369 7.49682 18.6927 7.25266C18.1863 6.74985 17.3633 6.74985 16.8569 7.25266L8.99466 15.0733C8.74869 15.3175 8.61485 15.6412 8.61485 15.9867H8.61304Z" fill="#13E989"/>
<path d="M2.78125 15.6363C2.78125 15.9817 2.9169 16.3055 3.16288 16.5496C3.41609 16.801 3.74888 16.9258 4.07987 16.9258C4.41086 16.9258 4.74546 16.7992 4.99867 16.5478L14.9192 6.66711C15.1652 6.42294 15.299 6.09919 15.299 5.75374C15.299 5.40828 15.1634 5.08453 14.9174 4.84036C14.411 4.33755 13.588 4.33755 13.0816 4.84036L3.16107 14.7193C2.91509 14.9634 2.78125 15.2872 2.78125 15.6327V15.6363Z" fill="#13E989"/>
<path d="M1.29862 13.5374C1.6296 13.5374 1.9624 13.4126 2.21561 13.1612L5.81485 9.59452C6.06083 9.35035 6.19648 9.0266 6.19648 8.68115C6.19648 8.33569 6.06264 8.01194 5.81847 7.76777C5.31385 7.26315 4.4891 7.26315 3.98267 7.76415L0.381628 11.3326C0.13565 11.5768 0 11.9006 0 12.246C0 12.5915 0.133841 12.9152 0.37801 13.1594C0.631223 13.4126 0.964017 13.5392 1.29681 13.5392L1.29862 13.5374Z" fill="#13E989"/>
<path d="M51.7879 23.3954C51.5329 23.3954 51.3262 23.1887 51.3262 22.9336V0.956766C51.3262 0.701737 51.5329 0.494995 51.7879 0.494995H54.8274C55.0824 0.494995 55.2891 0.701737 55.2891 0.956767V22.9336C55.2891 23.1887 55.0824 23.3954 54.8274 23.3954H51.7879Z" fill="white"/>
<path d="M45.4552 23.3954C45.2002 23.3954 44.9934 23.1887 44.9934 22.9336V0.956766C44.9934 0.701737 45.2002 0.494995 45.4552 0.494995H48.4946C48.7496 0.494995 48.9564 0.701737 48.9564 0.956767V22.9336C48.9564 23.1887 48.7496 23.3954 48.4946 23.3954H45.4552Z" fill="white"/>
<path d="M35.1255 6.21295C36.7388 6.21295 38.2014 6.58596 39.5122 7.33209C40.8231 8.0783 41.862 9.09702 42.6284 10.3878C43.4149 11.6583 43.8081 13.1309 43.8081 14.8047C43.808 16.4582 43.4148 17.9302 42.6284 19.2208C41.8419 20.5115 40.7928 21.5302 39.4819 22.2764C38.1711 23.0226 36.7187 23.3956 35.1255 23.3956C33.5123 23.3955 32.0404 23.0225 30.7095 22.2764C29.3986 21.5302 28.3495 20.5115 27.563 19.2208C26.7968 17.9302 26.4136 16.4582 26.4136 14.8047C26.4136 13.151 26.7966 11.6785 27.563 10.3878C28.3495 9.09702 29.3986 8.0783 30.7095 7.33209C32.0202 6.58606 33.4922 6.21301 35.1255 6.21295ZM35.1108 9.79108C32.343 9.79108 30.0992 12.035 30.0991 14.8028C30.0991 17.5707 32.343 19.8145 35.1108 19.8145C37.8786 19.8144 40.1226 17.5706 40.1226 14.8028C40.1225 12.035 37.8786 9.79117 35.1108 9.79108Z" fill="white"/>
<path d="M60.2163 6.21295C60.4086 6.213 60.5813 6.33276 60.6489 6.51276L64.7349 17.3917C64.7502 17.4268 64.8138 17.4646 64.8618 17.3946L68.9243 6.51276C68.9917 6.33261 69.1646 6.21327 69.3569 6.21295H72.6528C72.9788 6.21295 73.2024 6.5417 73.0825 6.84479L66.1626 24.334C65.7391 25.3825 65.2245 26.2804 64.6196 27.0264C64.0148 27.7723 63.3088 28.3367 62.5024 28.7198C61.716 29.123 60.8082 29.3252 59.7798 29.3253C59.3363 29.3252 58.9023 29.2848 58.479 29.2042C58.1563 29.158 57.8565 29.0764 57.5806 28.96C57.4234 28.8935 57.3298 28.7343 57.3296 28.5635V26.1241C57.3296 25.8273 57.6061 25.6065 57.8979 25.6602C58.0145 25.6818 58.1378 25.7041 58.2671 25.7256C58.65 25.7861 59.0032 25.8154 59.3257 25.8155C59.3653 25.8155 59.4052 25.8124 59.4438 25.8116C59.4651 25.812 59.4869 25.8135 59.5083 25.8135C59.7501 25.8135 59.9857 25.7843 60.2114 25.7315C60.4973 25.6711 60.7442 25.5784 60.9517 25.4522C61.7777 25.0116 62.3789 24.2063 62.5386 23.2501L62.5405 23.2442C62.644 22.4664 62.5078 22.0544 62.4243 21.7657L62.3901 21.6797C62.3675 21.6184 62.3442 21.5575 62.3179 21.4981L56.52 6.84479C56.4003 6.54194 56.6242 6.21337 56.9497 6.21295H60.2163Z" fill="white"/>
</svg>
